<svg xmlns="http://www.w3.org/2000/svg" xmlns:xlink="http://www.w3.org/1999/xlink" width="500" zoomAndPan="magnify" viewBox="0 0 375 374.999991" height="500" preserveAspectRatio="xMidYMid meet" version="1.0"><defs><clipPath id="06e37dcb81"><path d="M 9.003906 29.53125 L 327 29.53125 L 327 268 L 9.003906 268 Z M 9.003906 29.53125 " clip-rule="nonzero"/></clipPath><clipPath id="fe110216d5"><path d="M 254 162 L 366 162 L 366 345.28125 L 254 345.28125 Z M 254 162 " clip-rule="nonzero"/></clipPath></defs><path fill="#9eff1f" d="M 360.304688 311.167969 L 260.460938 311.167969 C 257.582031 311.167969 255.222656 308.8125 255.222656 305.933594 C 255.222656 303.054688 257.582031 300.695312 260.460938 300.695312 L 360.304688 300.695312 C 363.183594 300.695312 365.539062 303.054688 365.539062 305.933594 C 365.539062 308.8125 363.183594 311.167969 360.304688 311.167969 Z M 360.304688 311.167969 " fill-opacity="1" fill-rule="nonzero"/><path fill="#9eff1f" d="M 319.109375 195.355469 L 301.65625 195.355469 C 298.773438 195.355469 296.417969 193 296.417969 190.117188 C 296.417969 187.238281 298.773438 184.882812 301.65625 184.882812 L 319.109375 184.882812 C 321.988281 184.882812 324.347656 187.238281 324.347656 190.117188 C 324.347656 193 321.988281 195.355469 319.109375 195.355469 Z M 319.109375 195.355469 " fill-opacity="1" fill-rule="nonzero"/><path fill="#74cc00" d="M 250.335938 304.625 L 164.980469 304.625 C 162.101562 304.625 159.746094 302.265625 159.746094 299.386719 C 159.746094 296.507812 162.101562 294.152344 164.980469 294.152344 L 250.335938 294.152344 C 253.21875 294.152344 255.574219 296.507812 255.574219 299.386719 C 255.574219 302.265625 253.21875 304.625 250.335938 304.625 Z M 250.335938 304.625 " fill-opacity="1" fill-rule="nonzero"/><path fill="#74cc00" d="M 335.867188 126.234375 L 164.109375 126.234375 C 161.226562 126.234375 158.871094 123.875 158.871094 120.996094 C 158.871094 118.117188 161.226562 115.757812 164.109375 115.757812 L 335.867188 115.757812 C 338.746094 115.757812 341.101562 118.117188 341.101562 120.996094 C 341.101562 123.875 338.835938 126.234375 335.867188 126.234375 Z M 335.867188 126.234375 " fill-opacity="1" fill-rule="nonzero"/><path fill="#9eff1f" d="M 222.933594 238.292969 L 187.148438 238.292969 C 184.269531 238.292969 181.914062 235.9375 181.914062 233.058594 C 181.914062 230.179688 184.269531 227.820312 187.148438 227.820312 L 222.933594 227.820312 C 225.8125 227.820312 228.167969 230.179688 228.167969 233.058594 C 228.167969 235.9375 225.8125 238.292969 222.933594 238.292969 Z M 222.933594 238.292969 " fill-opacity="1" fill-rule="nonzero"/><path fill="#9eff1f" d="M 226.160156 266.046875 L 193.257812 266.046875 C 190.378906 266.046875 188.023438 263.691406 188.023438 260.8125 C 188.023438 257.929688 190.378906 255.574219 193.257812 255.574219 L 226.160156 255.574219 C 229.042969 255.574219 231.398438 257.929688 231.398438 260.8125 C 231.398438 263.691406 229.042969 266.046875 226.160156 266.046875 Z M 226.160156 266.046875 " fill-opacity="1" fill-rule="nonzero"/><path fill="#74cc00" d="M 260.375 335.257812 L 178.246094 335.257812 C 165.503906 335.257812 155.117188 324.871094 155.117188 312.128906 L 155.117188 106.421875 C 155.117188 93.679688 165.503906 83.292969 178.246094 83.292969 L 322.777344 83.292969 C 335.519531 83.292969 345.902344 93.679688 345.902344 106.421875 L 345.902344 167.949219 C 345.902344 170.832031 343.546875 173.1875 340.667969 173.1875 L 273.289062 173.1875 C 268.925781 173.1875 265.347656 176.765625 265.347656 181.128906 L 265.347656 327.054688 C 265.347656 327.664062 265.433594 328.277344 265.523438 328.800781 C 265.871094 330.371094 265.523438 332.027344 264.5625 333.25 C 263.429688 334.558594 261.945312 335.257812 260.375 335.257812 Z M 178.160156 93.765625 C 171.179688 93.765625 165.503906 99.4375 165.503906 106.421875 L 165.503906 312.128906 C 165.503906 319.113281 171.179688 324.785156 178.160156 324.785156 L 254.699219 324.785156 L 254.699219 181.128906 C 254.699219 171.003906 262.992188 162.714844 273.117188 162.714844 L 335.253906 162.714844 L 335.253906 106.421875 C 335.253906 99.4375 329.582031 93.765625 322.601562 93.765625 Z M 178.160156 93.765625 " fill-opacity="1" fill-rule="nonzero"/><g clip-path="url(#06e37dcb81)"><path fill="#74cc00" d="M 160.355469 267.792969 L 35.726562 267.792969 C 20.976562 267.792969 9.019531 255.835938 9.019531 241.085938 L 9.019531 56.238281 C 9.019531 41.488281 20.976562 29.53125 35.726562 29.53125 L 299.296875 29.53125 C 314.046875 29.53125 326.003906 41.488281 326.003906 56.238281 L 326.003906 88.53125 C 326.003906 91.410156 323.648438 93.765625 320.769531 93.765625 L 178.160156 93.765625 C 171.179688 93.765625 165.503906 99.4375 165.503906 106.421875 L 165.503906 262.558594 C 165.59375 265.4375 163.234375 267.792969 160.355469 267.792969 Z M 35.726562 40.003906 C 26.738281 40.003906 19.492188 47.335938 19.492188 56.238281 L 19.492188 241.085938 C 19.492188 250.078125 26.824219 257.320312 35.726562 257.320312 L 155.03125 257.320312 L 155.03125 106.421875 C 155.03125 93.679688 165.417969 83.292969 178.160156 83.292969 L 315.617188 83.292969 L 315.617188 56.238281 C 315.617188 47.25 308.289062 40.003906 299.386719 40.003906 C 299.386719 40.003906 35.726562 40.003906 35.726562 40.003906 Z M 35.726562 40.003906 " fill-opacity="1" fill-rule="nonzero"/></g><path fill="#9eff1f" d="M 110.085938 162.800781 L 62.519531 162.800781 C 59.640625 162.800781 57.285156 160.445312 57.285156 157.566406 C 57.285156 154.683594 59.640625 152.328125 62.519531 152.328125 L 110.085938 152.328125 C 112.964844 152.328125 115.320312 154.683594 115.320312 157.566406 C 115.320312 160.445312 112.964844 162.800781 110.085938 162.800781 Z M 110.085938 162.800781 " fill-opacity="1" fill-rule="nonzero"/><path fill="#9eff1f" d="M 101.621094 187.761719 L 57.808594 187.761719 C 54.925781 187.761719 52.570312 185.40625 52.570312 182.523438 C 52.570312 179.644531 54.925781 177.289062 57.808594 177.289062 L 101.621094 177.289062 C 104.5 177.289062 106.855469 179.644531 106.855469 182.523438 C 106.855469 185.40625 104.5 187.761719 101.621094 187.761719 Z M 101.621094 187.761719 " fill-opacity="1" fill-rule="nonzero"/><path fill="#74cc00" d="M 157.5625 229.652344 L 18.707031 229.652344 C 15.828125 229.652344 13.472656 227.296875 13.472656 224.417969 C 13.472656 221.539062 15.828125 219.179688 18.707031 219.179688 L 157.5625 219.179688 C 160.441406 219.179688 162.800781 221.539062 162.800781 224.417969 C 162.800781 227.296875 160.53125 229.652344 157.5625 229.652344 Z M 157.5625 229.652344 " fill-opacity="1" fill-rule="nonzero"/><path fill="#74cc00" d="M 107.203125 311.167969 C 105.808594 311.167969 104.5 310.644531 103.453125 309.597656 C 101.445312 307.503906 101.53125 304.1875 103.539062 302.179688 C 103.625 302.09375 114.625 290.660156 114.625 262.644531 C 114.625 259.765625 116.980469 257.40625 119.859375 257.40625 C 122.738281 257.40625 125.097656 259.765625 125.097656 262.644531 C 125.097656 295.546875 111.394531 309.164062 110.78125 309.773438 C 109.824219 310.644531 108.515625 311.167969 107.203125 311.167969 Z M 107.203125 311.167969 " fill-opacity="1" fill-rule="nonzero"/><path fill="#74cc00" d="M 184.878906 339.796875 L 94.550781 339.796875 C 84.6875 339.796875 76.570312 331.765625 76.570312 321.816406 C 76.570312 317.015625 78.402344 312.480469 81.808594 309.160156 C 85.210938 305.757812 89.75 303.925781 94.460938 303.925781 L 160.269531 303.925781 C 163.148438 303.925781 165.503906 306.28125 165.503906 309.160156 L 165.503906 312.128906 C 165.503906 319.113281 171.179688 324.785156 178.160156 324.785156 L 194.566406 324.785156 C 196.574219 324.785156 198.40625 325.917969 199.28125 327.75 C 200.152344 329.585938 199.890625 331.765625 198.582031 333.335938 C 198.234375 333.773438 197.882812 334.210938 197.449219 334.558594 C 194.21875 337.964844 189.679688 339.796875 184.878906 339.796875 Z M 94.550781 314.398438 C 92.542969 314.398438 90.710938 315.183594 89.226562 316.582031 C 87.828125 317.976562 87.042969 319.898438 87.042969 321.90625 C 87.042969 326.007812 90.359375 329.410156 94.550781 329.410156 L 162.800781 329.410156 C 158.609375 325.65625 155.816406 320.332031 155.207031 314.484375 L 94.550781 314.484375 Z M 94.550781 314.398438 " fill-opacity="1" fill-rule="nonzero"/><g clip-path="url(#fe110216d5)"><path fill="#9eff1f" d="M 347.5625 345.46875 L 273.203125 345.46875 C 264.5625 345.46875 257.144531 339.621094 255.222656 331.15625 C 254.960938 329.847656 254.789062 328.449219 254.789062 327.054688 L 254.789062 181.128906 C 254.789062 171.003906 263.078125 162.714844 273.203125 162.714844 L 347.5625 162.714844 C 357.6875 162.714844 365.976562 171.003906 365.976562 181.128906 L 365.976562 327.054688 C 365.976562 337.265625 357.6875 345.46875 347.5625 345.46875 Z M 273.203125 173.1875 C 268.839844 173.1875 265.261719 176.765625 265.261719 181.128906 L 265.261719 327.054688 C 265.261719 327.664062 265.347656 328.277344 265.433594 328.800781 C 266.222656 332.464844 269.539062 334.996094 273.203125 334.996094 L 347.5625 334.996094 C 351.925781 334.996094 355.503906 331.417969 355.503906 327.054688 L 355.503906 181.128906 C 355.503906 176.765625 351.925781 173.1875 347.5625 173.1875 Z M 273.203125 173.1875 " fill-opacity="1" fill-rule="nonzero"/></g></svg>