<svg xmlns="http://www.w3.org/2000/svg" xmlns:xlink="http://www.w3.org/1999/xlink" width="500" zoomAndPan="magnify" viewBox="0 0 375 374.999991" height="500" preserveAspectRatio="xMidYMid meet" version="1.0"><defs><clipPath id="7106978cff"><path d="M 198 27.53125 L 286 27.53125 L 286 115 L 198 115 Z M 198 27.53125 " clip-rule="nonzero"/></clipPath><clipPath id="d43db4d3c9"><path d="M 30 27.53125 L 350.183594 27.53125 L 350.183594 347.78125 L 30 347.78125 Z M 30 27.53125 " clip-rule="nonzero"/></clipPath><clipPath id="ff2e3b707f"><path d="M 24.683594 60 L 324 60 L 324 347.78125 L 24.683594 347.78125 Z M 24.683594 60 " clip-rule="nonzero"/></clipPath></defs><path fill="#ffde59" d="M 176.652344 49.222656 C 128.730469 49.222656 89.890625 88.0625 89.890625 135.984375 C 89.890625 183.90625 128.730469 222.746094 176.652344 222.746094 C 224.574219 222.746094 263.414062 183.90625 263.414062 135.984375 L 176.652344 135.984375 Z M 176.652344 49.222656 " fill-opacity="1" fill-rule="nonzero"/><g clip-path="url(#7106978cff)"><path fill="#ef7e4b" d="M 198.34375 27.53125 L 198.34375 114.292969 L 285.105469 114.292969 C 285.105469 66.371094 246.265625 27.53125 198.34375 27.53125 Z M 198.34375 27.53125 " fill-opacity="1" fill-rule="nonzero"/></g><path fill="#ef7e4b" d="M 51.933594 233.589844 L 73.621094 233.589844 L 73.621094 342.042969 L 51.933594 342.042969 Z M 51.933594 233.589844 " fill-opacity="1" fill-rule="nonzero"/><path fill="#ef7e4b" d="M 138.695312 249.859375 L 160.382812 249.859375 L 160.382812 342.042969 L 138.695312 342.042969 Z M 138.695312 249.859375 " fill-opacity="1" fill-rule="nonzero"/><path fill="#9eff1f" d="M 182.074219 276.972656 L 203.765625 276.972656 L 203.765625 342.042969 L 182.074219 342.042969 Z M 182.074219 276.972656 " fill-opacity="1" fill-rule="nonzero"/><path fill="#9eff1f" d="M 95.3125 276.972656 L 117.003906 276.972656 L 117.003906 342.042969 L 95.3125 342.042969 Z M 95.3125 276.972656 " fill-opacity="1" fill-rule="nonzero"/><g clip-path="url(#d43db4d3c9)"><path fill="#71a242" d="M 111.582031 38.378906 L 68.199219 38.378906 C 65.21875 38.378906 62.777344 35.9375 62.777344 32.953125 C 62.777344 29.972656 65.21875 27.53125 68.199219 27.53125 L 111.582031 27.53125 C 114.5625 27.53125 117.003906 29.972656 117.003906 32.953125 C 117.003906 35.9375 114.5625 38.378906 111.582031 38.378906 Z M 117.003906 54.644531 C 117.003906 51.664062 114.5625 49.222656 111.582031 49.222656 L 35.664062 49.222656 C 32.679688 49.222656 30.242188 51.664062 30.242188 54.644531 C 30.242188 57.628906 32.679688 60.066406 35.664062 60.066406 L 111.582031 60.066406 C 114.5625 60.066406 117.003906 57.628906 117.003906 54.644531 Z M 89.890625 76.335938 C 89.890625 73.351562 87.449219 70.914062 84.46875 70.914062 L 35.664062 70.914062 C 32.679688 70.914062 30.242188 73.351562 30.242188 76.335938 C 30.242188 79.316406 32.679688 81.757812 35.664062 81.757812 L 84.46875 81.757812 C 87.449219 81.757812 89.890625 79.316406 89.890625 76.335938 Z M 350.175781 163.097656 C 350.175781 160.113281 347.734375 157.675781 344.753906 157.675781 L 301.371094 157.675781 C 298.390625 157.675781 295.949219 160.113281 295.949219 163.097656 C 295.949219 166.078125 298.390625 168.519531 301.371094 168.519531 L 344.753906 168.519531 C 347.734375 168.519531 350.175781 166.078125 350.175781 163.097656 Z M 350.175781 184.789062 C 350.175781 181.804688 347.734375 179.363281 344.753906 179.363281 L 268.835938 179.363281 C 265.855469 179.363281 263.414062 181.804688 263.414062 184.789062 C 263.414062 187.769531 265.855469 190.210938 268.835938 190.210938 L 344.753906 190.210938 C 347.734375 190.210938 350.175781 187.769531 350.175781 184.789062 Z M 350.175781 206.476562 C 350.175781 203.496094 347.734375 201.054688 344.753906 201.054688 L 268.835938 201.054688 C 265.855469 201.054688 263.414062 203.496094 263.414062 206.476562 C 263.414062 209.460938 265.855469 211.898438 268.835938 211.898438 L 344.753906 211.898438 C 347.734375 211.898438 350.175781 209.460938 350.175781 206.476562 Z M 350.175781 342.042969 C 350.175781 339.058594 347.734375 336.621094 344.753906 336.621094 L 241.722656 336.621094 C 238.742188 336.621094 236.300781 339.058594 236.300781 342.042969 C 236.300781 345.023438 238.742188 347.464844 241.722656 347.464844 L 344.753906 347.464844 C 347.734375 347.464844 350.175781 345.023438 350.175781 342.042969 Z M 290.527344 320.351562 C 290.527344 317.371094 288.085938 314.929688 285.105469 314.929688 L 241.722656 314.929688 C 238.742188 314.929688 236.300781 317.371094 236.300781 320.351562 C 236.300781 323.335938 238.742188 325.773438 241.722656 325.773438 L 285.105469 325.773438 C 288.085938 325.773438 290.527344 323.335938 290.527344 320.351562 Z M 350.175781 320.351562 C 350.175781 317.371094 347.734375 314.929688 344.753906 314.929688 L 306.792969 314.929688 C 303.8125 314.929688 301.371094 317.371094 301.371094 320.351562 C 301.371094 323.335938 303.8125 325.773438 306.792969 325.773438 L 344.753906 325.773438 C 347.734375 325.773438 350.175781 323.335938 350.175781 320.351562 Z M 257.992188 298.660156 C 257.992188 295.679688 255.550781 293.238281 252.566406 293.238281 L 241.722656 293.238281 C 238.742188 293.238281 236.300781 295.679688 236.300781 298.660156 C 236.300781 301.644531 238.742188 304.085938 241.722656 304.085938 L 252.566406 304.085938 C 255.550781 304.085938 257.992188 301.644531 257.992188 298.660156 Z M 312.21875 298.660156 C 312.21875 295.679688 309.777344 293.238281 306.792969 293.238281 L 274.257812 293.238281 C 271.277344 293.238281 268.835938 295.679688 268.835938 298.660156 C 268.835938 301.644531 271.277344 304.085938 274.257812 304.085938 L 306.792969 304.085938 C 309.777344 304.085938 312.21875 301.644531 312.21875 298.660156 Z M 350.175781 298.660156 C 350.175781 295.679688 347.734375 293.238281 344.753906 293.238281 L 328.484375 293.238281 C 325.503906 293.238281 323.0625 295.679688 323.0625 298.660156 C 323.0625 301.644531 325.503906 304.085938 328.484375 304.085938 L 344.753906 304.085938 C 347.734375 304.085938 350.175781 301.644531 350.175781 298.660156 Z M 350.175781 298.660156 " fill-opacity="1" fill-rule="nonzero"/></g><g clip-path="url(#ff2e3b707f)"><path fill="#71a242" d="M 127.847656 179.363281 L 41.085938 179.363281 C 38.105469 179.363281 35.664062 176.925781 35.664062 173.941406 L 35.664062 98.027344 C 35.664062 95.042969 38.105469 92.601562 41.085938 92.601562 C 44.070312 92.601562 46.507812 95.042969 46.507812 98.027344 L 46.507812 168.519531 L 127.847656 168.519531 C 130.832031 168.519531 133.269531 170.960938 133.269531 173.941406 C 133.269531 176.925781 130.832031 179.363281 127.847656 179.363281 Z M 323.0625 141.40625 L 323.0625 65.488281 C 323.0625 62.507812 320.621094 60.066406 317.640625 60.066406 L 252.566406 60.066406 C 249.585938 60.066406 247.144531 62.507812 247.144531 65.488281 C 247.144531 68.472656 249.585938 70.914062 252.566406 70.914062 L 312.21875 70.914062 L 312.21875 141.40625 C 312.21875 144.390625 314.65625 146.828125 317.640625 146.828125 C 320.621094 146.828125 323.0625 144.390625 323.0625 141.40625 Z M 295.949219 276.972656 L 295.949219 255.28125 C 295.949219 252.296875 293.507812 249.859375 290.527344 249.859375 L 203.765625 249.859375 C 200.78125 249.859375 198.34375 252.296875 198.34375 255.28125 C 198.34375 258.261719 200.78125 260.703125 203.765625 260.703125 L 285.105469 260.703125 L 285.105469 276.972656 C 285.105469 279.953125 287.542969 282.394531 290.527344 282.394531 C 293.507812 282.394531 295.949219 279.953125 295.949219 276.972656 Z M 214.609375 342.042969 C 214.609375 339.058594 212.167969 336.621094 209.1875 336.621094 L 35.664062 336.621094 L 35.664062 201.054688 C 35.664062 198.074219 33.222656 195.632812 30.242188 195.632812 C 27.257812 195.632812 24.820312 198.074219 24.820312 201.054688 L 24.820312 342.042969 C 24.820312 345.023438 27.257812 347.464844 30.242188 347.464844 L 209.1875 347.464844 C 212.167969 347.464844 214.609375 345.023438 214.609375 342.042969 Z M 214.609375 342.042969 " fill-opacity="1" fill-rule="nonzero"/></g></svg>